<svg width="26" height="25" viewBox="0 0 26 25" fill="none" xmlns="http://www.w3.org/2000/svg">
<rect x="0.481217" y="0.481217" width="24.0608" height="23.0984" rx="4.33095" fill="white" stroke="#EAEAEA" stroke-width="0.962433"/>
<path fill-rule="evenodd" clip-rule="evenodd" d="M12.4944 17.8264C12.5607 17.8814 12.6395 17.9251 12.7263 17.9549C12.8131 17.9847 12.9061 18 13 18C13.0939 18 13.1869 17.9847 13.2737 17.9549C13.3605 17.9251 13.4393 17.8814 13.5056 17.8264L17.7906 14.2812C17.9247 14.1703 18 14.0198 18 13.8629C18 13.706 17.9247 13.5555 17.7906 13.4446C17.6565 13.3336 17.4746 13.2713 17.2849 13.2713C17.0953 13.2713 16.9134 13.3336 16.7793 13.4446L13.7142 15.9817V5.59086C13.7142 5.43415 13.6389 5.28387 13.505 5.17306C13.3711 5.06225 13.1894 5 13 5C12.8106 5 12.6289 5.06225 12.495 5.17306C12.3611 5.28387 12.2858 5.43415 12.2858 5.59086V15.9817L9.22068 13.4446C9.08658 13.3336 8.9047 13.2713 8.71506 13.2713C8.52541 13.2713 8.34354 13.3336 8.20944 13.4446C8.07534 13.5555 8 13.706 8 13.8629C8 14.0198 8.07534 14.1703 8.20944 14.2812L12.4944 17.8264Z" fill="#64B5F6"/>
</svg>
