<svg width="40" height="40" viewBox="0 0 40 40" fill="none" xmlns="http://www.w3.org/2000/svg">
<g filter="url(#filter0_d)">
<rect x="4" y="3" width="32" height="32" rx="5" fill="#64B5F6"/>
<path fill-rule="evenodd" clip-rule="evenodd" d="M19.9999 12.75C18.6491 12.7505 17.3349 13.1887 16.254 13.9988C15.1731 14.8089 14.3837 15.9475 14.0042 17.2438C13.6246 18.5402 13.6753 19.9247 14.1486 21.1899C14.6218 22.455 15.4923 23.5328 16.6295 24.2618C17.7668 24.9908 19.1095 25.3317 20.4568 25.2335C21.804 25.1352 23.0832 24.6032 24.1026 23.717C25.1221 22.8308 25.8271 21.6382 26.1119 20.3177C26.3967 18.9973 26.246 17.6201 25.6824 16.3925C25.6211 16.2432 25.6199 16.076 25.679 15.9259C25.7381 15.7758 25.853 15.6543 25.9997 15.587C26.1463 15.5196 26.3133 15.5116 26.4658 15.5646C26.6182 15.6176 26.7442 15.7275 26.8174 15.8713C27.4937 17.3445 27.6744 18.9972 27.3325 20.5817C26.9907 22.1663 26.1446 23.5974 24.9211 24.6608C23.6976 25.7242 22.1625 26.3625 20.5457 26.4802C18.929 26.5979 17.3176 26.1886 15.953 25.3136C14.5884 24.4387 13.544 23.1452 12.9763 21.6268C12.4085 20.1085 12.348 18.447 12.8037 16.8914C13.2595 15.3358 14.207 13.9696 15.5043 12.9977C16.8016 12.0257 18.3789 11.5003 19.9999 11.5V12.75Z" fill="white"/>
<path d="M20 14.5826V9.6676C20 9.60822 20.017 9.55008 20.0488 9.49998C20.0807 9.44988 20.1262 9.40989 20.18 9.38471C20.2337 9.35953 20.2936 9.35019 20.3525 9.35778C20.4114 9.36538 20.4669 9.3896 20.5125 9.4276L23.4625 11.8851C23.6125 12.0101 23.6125 12.2401 23.4625 12.3651L20.5125 14.8226C20.4669 14.8606 20.4114 14.8848 20.3525 14.8924C20.2936 14.9 20.2337 14.8907 20.18 14.8655C20.1262 14.8403 20.0807 14.8003 20.0488 14.7502C20.017 14.7001 20 14.642 20 14.5826Z" fill="white"/>
</g>
<defs>
<filter id="filter0_d" x="0" y="0" width="40" height="40" filterUnits="userSpaceOnUse" color-interpolation-filters="sRGB">
<feFlood flood-opacity="0" result="BackgroundImageFix"/>
<feColorMatrix in="SourceAlpha" type="matrix" values="0 0 0 0 0 0 0 0 0 0 0 0 0 0 0 0 0 0 127 0"/>
<feOffset dy="1"/>
<feGaussianBlur stdDeviation="2"/>
<feColorMatrix type="matrix" values="0 0 0 0 0 0 0 0 0 0 0 0 0 0 0 0 0 0 0.25 0"/>
<feBlend mode="normal" in2="BackgroundImageFix" result="effect1_dropShadow"/>
<feBlend mode="normal" in="SourceGraphic" in2="effect1_dropShadow" result="shape"/>
</filter>
</defs>
</svg>
