<svg xmlns="http://www.w3.org/2000/svg" version="1.1" xmlns:xlink="http://www.w3.org/1999/xlink" xmlns:svgjs="http://svgjs.com/svgjs" width="100%" height="100%" viewBox="0 0 1000 600"><rect width="1000" height="600" x="0" y="0" fill="transparent"/><g><rect width="333.3333333333333" height="333.3333333333333" rx="13.333333333333334" ry="13.333333333333334" y="306.7140107531473" fill="#64b5f6" transform="matrix(0.43938003648484814,0,0,0.43938003648484814,0,92.00599463303388)" x="284.49176025390625"/><path d="M405.55657851506794 548.380681295002L405.55657851506794 398.38068331336024L496.03276777383593 398.38068331336024L496.03276777383593 416.46930740858903L427.4481126120359 416.46930740858903L427.4481126120359 461.4759205596063L489.8489054231818 461.4759205596063L489.8489054231818 479.33306317646844L427.4481126120359 479.33306317646844L427.4481126120359 530.2920571997731L496.76028099155997 530.2920571997731L496.76028099155997 548.380681295002L405.55657851506794 548.380681295002Z " fill="white" transform="matrix(0.43938003648484814,0,0,0.43938003648484814,0,92.00599463303388)"/><path d="M701.1584272110779 546.4973544059551L701.1584272110779 415.0698879227161L780.432137153349 415.0698879227161L780.432137153349 430.9188350493324L720.3394198944783 430.9188350493324L720.3394198944783 470.352869856142L775.0139413349262 470.352869856142L775.0139413349262 485.9989968184323L720.3394198944783 485.9989968184323L720.3394198944783 530.6484072793387L781.0695719555164 530.6484072793387L781.0695719555164 546.4973544059551L701.1584272110779 546.4973544059551ZM821.9523222217973 546.4973544059551L804.0172248335423 546.4973544059551L804.0172248335423 398.38068582960636L821.9523222217973 398.38068582960636L821.9523222217973 546.4973544059551ZM934.6044363502879 489.96847717738376L934.6044363502879 499.55897351908396L864.2837879475495 499.55897351908396L864.2837879475495 500.39922848557734Q864.2837879475495 516.6538159408456 873.149926559514 525.4330316252419Q882.0160651714787 534.1832730004487 897.2565518051169 534.1832730004487L897.2565518051169 534.1832730004487Q905.1955125230198 534.1832730004487 911.3380660711782 532.9373777053033Q917.4806196193367 531.691482410158 924.7821455350722 528.765077182026L924.7821455350722 528.765077182026L928.5488057296976 542.3250538826776Q922.4931751091076 545.0486389464836 914.2644712993103 546.700174570281Q906.0067931803238 548.3806845032677 896.6191170029496 548.3806845032677L896.6191170029496 548.3806845032677Q885.98554553043 548.3806845032677 876.7137665898135 545.4542792751356Q867.4130133400076 542.5278740470035 860.3432818977875 536.3853204988452Q853.244576146378 530.2137926414973 849.1591985506689 520.6232962997971Q845.1027952641491 511.03279995809686 845.1027952641491 497.6756434217712L845.1027952641491 497.6756434217712Q845.1027952641491 486.2018169827583 848.5507380576909 476.81414080538406Q851.9986808512326 467.4264646280099 858.2571316361488 460.84929644201003Q864.5155824210649 454.30110256519964 873.3817210330294 450.6503396073319Q882.247859644994 446.99957664946413 893.2870714461656 446.99957664946413L893.2870714461656 446.99957664946413Q902.6747476235398 446.99957664946413 910.294990940359 450.1288020419222Q917.9152342571781 453.25802743438027 923.3334300756009 458.879043417129Q928.7516258940236 464.5000593998778 931.6780311221557 472.4390201177807Q934.6044363502879 480.37798083568356 934.6044363502879 489.96847717738376L934.6044363502879 489.96847717738376ZM864.7184025853909 486.8392517849257L915.6262638312135 486.4046371470843Q915.6262638312135 480.9864413286615 914.2644712993103 476.2926032399744Q912.9026787674073 471.5987651512873 910.092170776033 468.0638994301773Q907.2816627846586 464.5000593998778 902.8775677878657 462.4139091382391Q898.5024471002623 460.3277588766004 892.2439963153462 460.3277588766004L892.2439963153462 460.3277588766004Q880.7701698763333 460.3277588766004 873.5845411973554 467.62928479233585Q866.3699382091883 474.93081070807136 864.7184025853909 486.8392517849257L864.7184025853909 486.8392517849257ZM977.5733368782074 546.4973544059551L959.203624852111 546.4973544059551L959.203624852111 448.44829210893545L977.5733368782074 448.44829210893545L977.5733368782074 546.4973544059551ZM968.3884808651592 423.21166880494496L968.3884808651592 423.21166880494496Q963.6077198489038 423.21166880494496 960.1597770553622 419.96654617572915Q956.7118342618203 416.7503978557028 956.7118342618203 411.940662530258L956.7118342618203 411.940662530258Q956.7118342618203 407.1309272048132 960.1597770553622 403.7988816480291Q963.6077198489038 400.46683609124506 968.3884808651592 400.46683609124506L968.3884808651592 400.46683609124506Q972.9953960262781 400.46683609124506 976.5302617473881 403.7988816480291Q980.0651274684981 407.1309272048132 980.0651274684981 411.940662530258L980.0651274684981 411.940662530258Q980.0651274684981 416.7503978557028 976.5302617473881 419.96654617572915Q972.9953960262781 423.21166880494496 968.3884808651592 423.21166880494496ZM1059.1360172464433 448.44829210893545L1059.1360172464433 462.2110889739131L1030.3645282213427 462.2110889739131L1030.3645282213427 519.1745808403257Q1030.3645282213427 526.4761067560612 1034.0152911792104 528.967897346352Q1037.6660541370782 531.4886622458321 1043.4898902841528 531.4886622458321L1043.4898902841528 531.4886622458321Q1047.6621908074303 531.4886622458321 1052.6747462972012 530.532510042581Q1057.6873017869718 529.6053321485192 1061.424987672408 528.3594368533741L1061.424987672408 528.3594368533741L1064.35139290054 542.3250538826776Q1060.1790923772626 544.0055638156643 1053.7178214280204 545.2514591108097Q1047.2565504787783 546.4973544059551 1040.157844727369 546.4973544059551L1040.157844727369 546.4973544059551Q1025.554792895898 546.4973544059551 1018.8907017823296 540.1230063842811Q1012.1976363595722 533.7776326717967 1012.1976363595722 521.6663714306164L1012.1976363595722 521.6663714306164L1012.1976363595722 462.2110889739131L997.5945845281012 462.2110889739131L997.5945845281012 448.44829210893545L1012.1976363595722 448.44829210893545L1012.1976363595722 417.15603818435477L1030.3645282213427 417.15603818435477L1030.3645282213427 448.44829210893545L1059.1360172464433 448.44829210893545ZM1173.4686413079205 496.4297481266259L1173.4686413079205 496.4297481266259Q1173.4686413079205 508.74382953213217 1169.701981113295 518.4502231105901Q1165.964295227859 528.1276423798586 1159.3871270418592 534.8207078026161Q1152.8099588558593 541.4847989161842 1144.0597174806526 544.932741709726Q1135.2805017962564 548.3806845032677 1125.0525706523886 548.3806845032677L1125.0525706523886 548.3806845032677Q1114.8536138177105 548.3806845032677 1106.1902953700721 545.135561874052Q1097.5269769224335 541.9194135540256 1091.1526289007597 535.5450655323518Q1084.8072551882751 529.1707175106778 1081.1564922304074 519.8989385700613Q1077.5057292725396 510.6271596294449 1077.5057292725396 498.5158983882646L1077.5057292725396 498.5158983882646Q1077.5057292725396 486.2018169827583 1081.2434151579757 476.6113206410581Q1085.0100753526012 467.0208242993579 1091.587243538601 460.4436561133581Q1098.1644117246008 453.86648792735826 1106.9146530998078 450.4185451338165Q1115.6648944750145 446.99957664946413 1125.892825618882 446.99957664946413L1125.892825618882 446.99957664946413Q1136.1207567627498 446.99957664946413 1144.7840752103882 450.1288020419222Q1153.4473936580268 453.25802743438027 1159.7927673705112 459.5164782192964Q1166.167115392185 465.77492900421254 1169.8178783500528 475.04670794482905Q1173.4686413079205 484.31848688544557 1173.4686413079205 496.4297481266259ZM1154.2586743153306 497.4728232574452L1154.2586743153306 497.4728232574452Q1154.2586743153306 487.67950675141907 1151.76688372504 480.78362116433556Q1149.2750931347493 473.887735577252 1145.1897155390402 469.5126148896486Q1141.1333122525205 465.13749420204516 1135.9179365984237 463.16724117716416Q1130.702560944327 461.1680138430937 1125.284365125904 461.1680138430937L1125.284365125904 461.1680138430937Q1119.837194998292 461.1680138430937 1114.621819344195 462.84852377608047Q1109.4064436900983 464.5000593998778 1105.4659376403365 468.6723599231552Q1101.496457281385 472.84466044643267 1099.0915896186625 479.85644327027387Q1096.6867219559401 486.8392517849257 1096.6867219559401 497.4728232574452L1096.6867219559401 497.4728232574452Q1096.6867219559401 507.2661397634714 1099.2074868554203 514.2779225873126Q1101.6992774457108 521.2607311019644 1105.7556807322308 525.6358517895678Q1109.8410583279397 530.0109724771712 1115.0564339820367 532.09712273881Q1120.2718096361334 534.1832730004487 1125.690005454556 534.1832730004487L1125.690005454556 534.1832730004487Q1131.108201272979 534.1832730004487 1136.3235769270757 532.4158401398936Q1141.5389525811725 530.6484072793387 1145.5084329401238 526.3602095193035Q1149.4779132990752 522.1009860684578 1151.8827809617976 515.0892032446166Q1154.2586743153306 508.1063947299648 1154.2586743153306 497.4728232574452ZM1213.511136607708 546.4973544059551L1195.373219055127 546.4973544059551L1195.373219055127 448.44829210893545L1209.1360159201047 448.44829210893545L1212.265241312563 468.0638994301773Q1215.8001070336727 458.676223252803 1223.9418879159016 452.8234127965389Q1232.0836687981305 446.99957664946413 1242.71724027065 446.99957664946413L1242.71724027065 446.99957664946413Q1248.1354360890728 446.99957664946413 1251.6992761193724 447.81085730676807Q1255.2341418404824 448.65111227326145 1258.1605470686145 449.89700756840676L1258.1605470686145 449.89700756840676L1254.6256813475043 465.97774916853854Q1252.1049164480241 464.7318538733932 1249.0915882923239 463.89159890689984Q1246.0492858274342 463.05134394040647 1241.8769853041567 463.05134394040647L1241.8769853041567 463.05134394040647Q1235.850328992756 463.05134394040647 1230.7218762662274 465.13749420204516Q1225.6223978488883 467.2236444636839 1221.7688147266945 471.3959449869613Q1217.8862572953115 475.56824551023874 1215.7131841061046 481.7107990583972Q1213.511136607708 487.88232691574507 1213.511136607708 495.79231332445846L1213.511136607708 495.79231332445846L1213.511136607708 546.4973544059551ZM1281.5138402752923 470.5556900204679L1274.4441088330723 457.1985334841423Q1279.4276900136535 454.70674289385164 1283.8317850104463 452.7364898689706Q1288.20690569805 450.7372625349002 1292.582026385653 449.4913672397548Q1296.9571470732565 448.2454719446095 1301.5640622343753 447.6080371424421Q1306.1420030863048 446.99957664946413 1311.5601989047277 446.99957664946413L1311.5601989047277 446.99957664946413Q1319.7019797869566 446.99957664946413 1326.4819681372824 448.7670095100192Q1333.2619564876081 450.5344423705742 1338.158614740621 454.70674289385164Q1343.0552729936344 458.879043417129 1345.7788580574404 465.65903176745485Q1348.5024431212464 472.4390201177807 1348.5024431212464 482.66695126164825L1348.5024431212464 482.66695126164825L1348.5024431212464 546.4973544059551L1333.2619564876081 546.4973544059551L1330.9729860616435 535.6609627691095L1330.538371423802 535.6609627691095Q1324.0771004745598 542.5278740470035 1316.3699342301725 545.4542792751356Q1308.6337936765954 548.3806845032677 1299.2461174992213 548.3806845032677L1299.2461174992213 548.3806845032677Q1292.1763860570013 548.3806845032677 1286.2076783639793 546.3814571691973Q1280.267944980147 544.4112041443163 1275.8928242925435 540.7604411864486Q1271.5177036049402 537.1096782285808 1269.1128359422178 531.8943025744841Q1266.7079682794952 526.6789269203872 1266.7079682794952 520.2176559711452L1266.7079682794952 520.2176559711452Q1266.7079682794952 504.7743491731807 1278.906152448244 496.7484655277096Q1291.1333109261818 488.72258188223844 1311.1545585760755 488.72258188223844L1311.1545585760755 488.72258188223844L1329.929910930824 488.72258188223844L1329.929910930824 480.37798083568356Q1329.929910930824 469.71543505397455 1324.5117151124014 465.86185193178085Q1319.064544984789 462.0082688095871 1309.9086632809303 462.0082688095871L1309.9086632809303 462.0082688095871Q1304.461493153318 462.0082688095871 1297.4786846386662 463.77570167014215Q1290.4958761240146 465.54313453069716 1281.5138402752923 470.5556900204679L1281.5138402752923 470.5556900204679ZM1330.1327310951501 521.2607311019644L1330.1327310951501 501.2394834520707L1314.6894242971857 501.64512378072266Q1299.0432973348952 502.0507641093746 1292.4661291488956 507.1792168359031Q1285.9179352720853 512.2786952532422 1285.9179352720853 519.5802211689777L1285.9179352720853 519.5802211689777Q1285.9179352720853 523.9553418565811 1287.3666507315565 526.997644321471Q1288.8153661910278 530.0109724771712 1291.22023385375 531.691482410158Q1293.6251015164726 533.3430180339553 1296.8702241456886 534.0963500728803Q1300.0863724657147 534.8207078026161 1303.650212496014 534.8207078026161L1303.650212496014 534.8207078026161Q1310.5171237739082 534.8207078026161 1317.6158295253176 531.5755851734003Q1324.7145352767272 528.3594368533741 1330.1327310951501 521.2607311019644L1330.1327310951501 521.2607311019644ZM1440.495874797676 456.59007299116433L1440.495874797676 398.38068582960636L1458.8366125145828 398.38068582960636L1458.8366125145828 546.4973544059551L1443.422280025808 546.4973544059551L1441.1043352906538 535.6609627691095L1440.495874797676 535.6609627691095Q1434.0346038484336 542.3250538826776 1427.457435662434 545.3383820383779Q1420.880267476434 548.3806845032677 1410.8551564968925 548.3806845032677L1410.8551564968925 548.3806845032677Q1402.945170088179 548.3806845032677 1395.5277469356856 545.2514591108097Q1388.139298092382 542.1222337183516 1382.2864876361177 535.8637829334355Q1376.4336771798537 529.6053321485192 1372.8988114587437 520.1017587343874Q1369.3639457376337 510.6271596294449 1369.3639457376337 497.6756434217712L1369.3639457376337 497.6756434217712Q1369.3639457376337 486.2018169827583 1372.377273893334 476.81414080538406Q1375.3906020490344 467.4264646280099 1381.0405923409726 460.7623735144418Q1386.6616083237213 454.0693080916842 1394.8033892059502 450.5344423705742Q1402.945170088179 446.99957664946413 1413.3759213963726 446.99957664946413L1413.3759213963726 446.99957664946413Q1421.0830876407601 446.99957664946413 1428.0658961554118 449.37547000299713Q1435.077678979253 451.7803376657195 1440.495874797676 456.59007299116433L1440.495874797676 456.59007299116433ZM1440.495874797676 520.6232962997971L1440.495874797676 472.0333797891287Q1430.6735839824605 460.9651936787678 1417.345401755324 460.9651936787678L1417.345401755324 460.9651936787678Q1411.6954114633859 460.9651936787678 1406.3931128817208 462.9354467036488Q1401.0618399908662 464.93467403771916 1397.0054367043465 469.3097947253226Q1392.9200591086374 473.68491541292605 1390.4282685183468 480.58080100000956Q1387.9075036188665 487.44771227790363 1387.9075036188665 497.0671829287933L1387.9075036188665 497.0671829287933Q1387.9075036188665 507.0633195991454 1390.225448354021 514.0461281137973Q1392.5144187799856 521.0579109376386 1396.368001902179 525.5199545528101Q1400.2215850243729 530.0109724771712 1405.118243277386 532.09712273881Q1410.0438758395885 534.1832730004487 1415.02745702017 534.1832730004487L1415.02745702017 534.1832730004487Q1430.6735839824605 534.1832730004487 1440.495874797676 520.6232962997971L1440.495874797676 520.6232962997971ZM1577.1387169350114 496.4297481266259L1577.1387169350114 496.4297481266259Q1577.1387169350114 508.74382953213217 1573.3720567403861 518.4502231105901Q1569.6343708549502 528.1276423798586 1563.0572026689504 534.8207078026161Q1556.4800344829505 541.4847989161842 1547.7297931077437 544.932741709726Q1538.9505774233473 548.3806845032677 1528.7226462794797 548.3806845032677L1528.7226462794797 548.3806845032677Q1518.5236894448017 548.3806845032677 1509.860370997163 545.135561874052Q1501.1970525495246 541.9194135540256 1494.8227045278506 535.5450655323518Q1488.4773308153663 529.1707175106778 1484.8265678574985 519.8989385700613Q1481.1758048996307 510.6271596294449 1481.1758048996307 498.5158983882646L1481.1758048996307 498.5158983882646Q1481.1758048996307 486.2018169827583 1484.9134907850666 476.6113206410581Q1488.6801509796924 467.0208242993579 1495.257319165692 460.4436561133581Q1501.834487351692 453.86648792735826 1510.584728726899 450.4185451338165Q1519.3349701021057 446.99957664946413 1529.562901245973 446.99957664946413L1529.562901245973 446.99957664946413Q1539.7908323898407 446.99957664946413 1548.4541508374791 450.1288020419222Q1557.1174692851177 453.25802743438027 1563.4628429976024 459.5164782192964Q1569.837191019276 465.77492900421254 1573.487953977144 475.04670794482905Q1577.1387169350114 484.31848688544557 1577.1387169350114 496.4297481266259ZM1557.9287499424217 497.4728232574452L1557.9287499424217 497.4728232574452Q1557.9287499424217 487.67950675141907 1555.436959352131 480.78362116433556Q1552.9451687618403 473.887735577252 1548.8597911661313 469.5126148896486Q1544.8033878796116 465.13749420204516 1539.5880122255148 463.16724117716416Q1534.3726365714178 461.1680138430937 1528.9544407529952 461.1680138430937L1528.9544407529952 461.1680138430937Q1523.507270625383 461.1680138430937 1518.2918949712862 462.84852377608047Q1513.0765193171896 464.5000593998778 1509.1360132674276 468.6723599231552Q1505.166532908476 472.84466044643267 1502.7616652457536 479.85644327027387Q1500.356797583031 486.8392517849257 1500.356797583031 497.4728232574452L1500.356797583031 497.4728232574452Q1500.356797583031 507.2661397634714 1502.8775624825112 514.2779225873126Q1505.369353072802 521.2607311019644 1509.425756359322 525.6358517895678Q1513.5111339550308 530.0109724771712 1518.7265096091276 532.09712273881Q1523.9418852632243 534.1832730004487 1529.3600810816474 534.1832730004487L1529.3600810816474 534.1832730004487Q1534.77827690007 534.1832730004487 1539.9936525541666 532.4158401398936Q1545.2090282082636 530.6484072793387 1549.178508567215 526.3602095193035Q1553.1479889261664 522.1009860684578 1555.5528565888887 515.0892032446166Q1557.9287499424217 508.1063947299648 1557.9287499424217 497.4728232574452ZM1596.5225297827378 535.226348131268L1596.5225297827378 535.226348131268Q1596.5225297827378 529.8081523128453 1600.2891899773635 526.0414921182198Q1604.0558501719888 522.3038062327838 1609.2712258260858 522.3038062327838L1609.2712258260858 522.3038062327838Q1614.4866014801823 522.3038062327838 1618.13736443805 526.0414921182198Q1621.7881273959179 529.8081523128453 1621.7881273959179 535.226348131268L1621.7881273959179 535.226348131268Q1621.7881273959179 541.2819787518582 1618.13736443805 544.8168444729683Q1614.4866014801823 548.3806845032677 1609.2712258260858 548.3806845032677L1609.2712258260858 548.3806845032677Q1604.0558501719888 548.3806845032677 1600.2891899773635 544.8168444729683Q1596.5225297827378 541.2819787518582 1596.5225297827378 535.226348131268ZM1689.9936512278282 534.1832730004487L1689.9936512278282 534.1832730004487Q1696.6577423413962 534.1832730004487 1701.6702978311669 532.7345575409774Q1706.6828533209377 531.2568677723166 1711.4925886463825 528.967897346352L1711.4925886463825 528.967897346352L1715.4330946961445 542.7306942113296Q1704.191062730647 548.3806845032677 1688.544935768357 548.3806845032677L1688.544935768357 548.3806845032677Q1677.882389986648 548.3806845032677 1668.6106110460314 545.2514591108097Q1659.338832105415 542.1222337183516 1652.3270492815736 535.7478856966777Q1645.3442407669218 529.4025119841933 1641.3747604079704 519.8989385700613Q1637.4342543582084 510.3953651559295 1637.4342543582084 497.6756434217712L1637.4342543582084 497.6756434217712Q1637.4342543582084 485.9989968184323 1641.1719402436443 476.6113206410581Q1644.93860043827 467.2236444636839 1651.6026915518378 460.64647627768403Q1658.2957569745954 454.0693080916842 1667.6834331519697 450.5344423705742Q1677.071109329344 446.99957664946413 1688.3131412948414 446.99957664946413L1688.3131412948414 446.99957664946413Q1694.803386553273 446.99957664946413 1700.9459401014315 447.92675454352576Q1707.0884936495897 448.85393243758745 1715.0274543674927 452.4177724678869L1715.0274543674927 452.4177724678869L1710.8551538442152 466.38338949719054Q1701.264657502515 460.9651936787678 1690.196471392154 460.9651936787678L1690.196471392154 460.9651936787678Q1674.9849590677052 460.9651936787678 1665.597282890331 470.46876709289967Q1656.2096067129569 479.9433661978422 1656.2096067129569 497.0671829287933L1656.2096067129569 497.0671829287933Q1656.2096067129569 507.70075440131285 1659.1070376318994 514.7994601527223Q1662.0334428600313 521.8691915949423 1666.8431781854765 526.1573893549776Q1671.6239392017317 530.4455871150126 1677.6795698223218 532.2999429031361Q1683.735200442912 534.1832730004487 1689.9936512278282 534.1832730004487ZM1825.5934182343444 496.4297481266259L1825.5934182343444 496.4297481266259Q1825.5934182343444 508.74382953213217 1821.8267580397192 518.4502231105901Q1818.0890721542828 528.1276423798586 1811.5119039682831 534.8207078026161Q1804.9347357822835 541.4847989161842 1796.1844944070767 544.932741709726Q1787.4052787226801 548.3806845032677 1777.206321888002 548.3806845032677L1777.206321888002 548.3806845032677Q1766.9783907441347 548.3806845032677 1758.315072296496 545.135561874052Q1749.6517538488574 541.9194135540256 1743.3063801363728 535.5450655323518Q1736.9320321146993 529.1707175106778 1733.2812691568315 519.8989385700613Q1729.6305061989638 510.6271596294449 1729.6305061989638 498.5158983882646L1729.6305061989638 498.5158983882646Q1729.6305061989638 486.2018169827583 1733.397166393589 476.6113206410581Q1737.1348522790254 467.0208242993579 1743.712020465025 460.4436561133581Q1750.2891886510247 453.86648792735826 1759.0394300262315 450.4185451338165Q1767.818645710628 446.99957664946413 1778.017602545306 446.99957664946413L1778.017602545306 446.99957664946413Q1788.2455336891735 446.99957664946413 1796.9088521368121 450.1288020419222Q1805.5721705844508 453.25802743438027 1811.9175442969354 459.5164782192964Q1818.291892318609 465.77492900421254 1821.9426552764767 475.04670794482905Q1825.5934182343444 484.31848688544557 1825.5934182343444 496.4297481266259ZM1806.4124255509441 497.4728232574452L1806.4124255509441 497.4728232574452Q1806.4124255509441 487.67950675141907 1803.891660651464 480.78362116433556Q1801.3998700611733 473.887735577252 1797.314492465464 469.5126148896486Q1793.2580891789444 465.13749420204516 1788.0427135248478 463.16724117716416Q1782.8273378707509 461.1680138430937 1777.4091420523282 461.1680138430937L1777.4091420523282 461.1680138430937Q1771.990946233905 461.1680138430937 1766.7755705798086 462.84852377608047Q1761.560194925712 464.5000593998778 1757.5907145667602 468.6723599231552Q1753.6212342078088 472.84466044643267 1751.2163665450867 479.85644327027387Q1748.811498882364 486.8392517849257 1748.811498882364 497.4728232574452L1748.811498882364 497.4728232574452Q1748.811498882364 507.2661397634714 1751.3322637818442 514.2779225873126Q1753.824054372135 521.2607311019644 1757.9094319678443 525.6358517895678Q1761.9658352543638 530.0109724771712 1767.1812109084603 532.09712273881Q1772.3965865625573 534.1832730004487 1777.81478238098 534.1832730004487L1777.81478238098 534.1832730004487Q1783.232978199403 534.1832730004487 1788.4483538534996 532.4158401398936Q1793.6637295075961 530.6484072793387 1797.633209866548 526.3602095193035Q1801.6026902254994 522.1009860684578 1804.0075578882215 515.0892032446166Q1806.4124255509441 508.1063947299648 1806.4124255509441 497.4728232574452ZM1866.2733483362995 475.36542534591274L1866.2733483362995 546.4973544059551L1847.9036363102032 546.4973544059551L1847.9036363102032 448.44829210893545L1862.101047813022 448.44829210893545L1864.8246328768282 462.0082688095871Q1871.6915441547221 455.1123832225036 1879.6305048726254 451.0559799359839Q1887.5404912813387 446.99957664946413 1898.6086773916995 446.99957664946413L1898.6086773916995 446.99957664946413Q1909.039428699893 446.99957664946413 1915.7035198134613 451.2588001003099Q1922.396585236219 455.54699786034496 1925.7286307930026 463.05134394040647L1925.7286307930026 463.05134394040647Q1933.0301567087386 455.344177696019 1941.7803980839453 451.1718771727416Q1950.5596137683415 446.99957664946413 1961.193185240861 446.99957664946413L1961.193185240861 446.99957664946413Q1976.201877400984 446.99957664946413 1983.822120717803 455.43110062358727Q1991.4423640346222 463.89159890689984 1991.4423640346222 478.9002910670228L1991.4423640346222 478.9002910670228L1991.4423640346222 546.4973544059551L1973.072652008526 546.4973544059551L1973.072652008526 482.2323366238069Q1973.072652008526 472.4390201177807 1968.9003514852484 467.2236444636839Q1964.728050961971 462.0082688095871 1955.1375546202707 462.0082688095871L1955.1375546202707 462.0082688095871Q1940.9691174266413 462.0082688095871 1928.655036021135 474.72799054374536L1928.655036021135 474.72799054374536Q1928.857856185461 475.77106567456474 1928.857856185461 476.81414080538406Q1928.857856185461 477.85721593620343 1928.857856185461 478.9002910670228L1928.857856185461 478.9002910670228L1928.857856185461 546.4973544059551L1910.4881441593643 546.4973544059551L1910.4881441593643 482.2323366238069Q1910.4881441593643 472.4390201177807 1906.3158436360868 467.2236444636839Q1902.1435431128093 462.0082688095871 1892.5530467711092 462.0082688095871L1892.5530467711092 462.0082688095871Q1878.3846095774798 462.0082688095871 1866.2733483362995 475.36542534591274L1866.2733483362995 475.36542534591274Z " fill="#64b5f6" transform="matrix(0.43938003648484814,0,0,0.43938003648484814,0,92.00599463303388)"/></g></svg>