<svg width="26" height="25" viewBox="0 0 26 25" fill="none" xmlns="http://www.w3.org/2000/svg">
<rect x="1.28444" y="1.33455" width="24.0608" height="23.0984" rx="4.33095" fill="white" stroke="#EAEAEA" stroke-width="0.962433"/>
<g clip-path="url(#clip0)">
<path fill-rule="evenodd" clip-rule="evenodd" d="M11.3559 14.991C11.2713 14.9064 11.1566 14.8589 11.037 14.8589C10.9173 14.8589 10.8026 14.9064 10.718 14.991L7.02228 18.6867V16.1892C7.02228 16.0695 6.97475 15.9548 6.89014 15.8702C6.80553 15.7856 6.69079 15.7381 6.57114 15.7381C6.45149 15.7381 6.33674 15.7856 6.25213 15.8702C6.16753 15.9548 6.12 16.0695 6.12 16.1892V19.7758C6.12 19.8954 6.16753 20.0102 6.25213 20.0948C6.33674 20.1794 6.45149 20.2269 6.57114 20.2269H10.1577C10.2774 20.2269 10.3921 20.1794 10.4767 20.0948C10.5613 20.0102 10.6088 19.8954 10.6088 19.7758C10.6088 19.6561 10.5613 19.5414 10.4767 19.4568C10.3921 19.3721 10.2774 19.3246 10.1577 19.3246H7.66019L11.3559 15.6289C11.4405 15.5443 11.488 15.4295 11.488 15.3099C11.488 15.1903 11.4405 15.0756 11.3559 14.991ZM15.2754 14.991C15.36 14.9064 15.4748 14.8589 15.5944 14.8589C15.714 14.8589 15.8288 14.9064 15.9134 14.991L19.6091 18.6867V16.1892C19.6091 16.0695 19.6566 15.9548 19.7412 15.8702C19.8258 15.7856 19.9406 15.7381 20.0602 15.7381C20.1799 15.7381 20.2946 15.7856 20.3792 15.8702C20.4638 15.9548 20.5114 16.0695 20.5114 16.1892V19.7758C20.5114 19.8954 20.4638 20.0102 20.3792 20.0948C20.2946 20.1794 20.1799 20.2269 20.0602 20.2269H16.4737C16.354 20.2269 16.2393 20.1794 16.1547 20.0948C16.0701 20.0102 16.0225 19.8954 16.0225 19.7758C16.0225 19.6561 16.0701 19.5414 16.1547 19.4568C16.2393 19.3721 16.354 19.3246 16.4737 19.3246H18.9712L15.2754 15.6289C15.1909 15.5443 15.1434 15.4295 15.1434 15.3099C15.1434 15.1903 15.1909 15.0756 15.2754 14.991ZM15.2754 11.0715C15.36 11.156 15.4748 11.2035 15.5944 11.2035C15.714 11.2035 15.8288 11.156 15.9134 11.0715L19.6091 7.37571V9.87323C19.6091 9.99288 19.6566 10.1076 19.7412 10.1922C19.8258 10.2768 19.9406 10.3244 20.0602 10.3244C20.1799 10.3244 20.2946 10.2768 20.3792 10.1922C20.4638 10.1076 20.5114 9.99288 20.5114 9.87323V6.28666C20.5114 6.16701 20.4638 6.05226 20.3792 5.96765C20.2946 5.88305 20.1799 5.83552 20.0602 5.83552H16.4737C16.354 5.83552 16.2393 5.88305 16.1547 5.96765C16.0701 6.05226 16.0225 6.16701 16.0225 6.28666C16.0225 6.40631 16.0701 6.52106 16.1547 6.60566C16.2393 6.69027 16.354 6.7378 16.4737 6.7378H18.9712L15.2754 10.4335C15.1909 10.5181 15.1434 10.6329 15.1434 10.7525C15.1434 10.8721 15.1909 10.9869 15.2754 11.0715ZM11.3559 11.0715C11.2713 11.156 11.1566 11.2035 11.037 11.2035C10.9173 11.2035 10.8026 11.156 10.718 11.0715L7.02228 7.37571V9.87323C7.02228 9.99288 6.97475 10.1076 6.89014 10.1922C6.80553 10.2768 6.69079 10.3244 6.57114 10.3244C6.45149 10.3244 6.33674 10.2768 6.25213 10.1922C6.16753 10.1076 6.12 9.99288 6.12 9.87323V6.28666C6.12 6.16701 6.16753 6.05226 6.25213 5.96765C6.33674 5.88305 6.45149 5.83552 6.57114 5.83552H10.1577C10.2774 5.83552 10.3921 5.88305 10.4767 5.96765C10.5613 6.05226 10.6088 6.16701 10.6088 6.28666C10.6088 6.40631 10.5613 6.52106 10.4767 6.60566C10.3921 6.69027 10.2774 6.7378 10.1577 6.7378H7.66019L11.3559 10.4335C11.4405 10.5181 11.488 10.6329 11.488 10.7525C11.488 10.8721 11.4405 10.9869 11.3559 11.0715Z" fill="#64B5F6"/>
</g>
<defs>
<clipPath id="clip0">
<rect width="14.4365" height="14.4365" fill="white" transform="translate(6.09668 5.81216)"/>
</clipPath>
</defs>
</svg>
