<svg width="39" height="40" viewBox="0 0 39 40" fill="none" xmlns="http://www.w3.org/2000/svg">
<g filter="url(#filter0_d)">
<rect x="4" y="3" width="32" height="32" rx="5" fill="#64B5F6"/>
<path fill-rule="evenodd" clip-rule="evenodd" d="M22.0933 21.0948C22.192 20.9961 22.3092 20.9177 22.4382 20.8642C22.5672 20.8107 22.7054 20.7832 22.845 20.7832C22.9847 20.7832 23.1229 20.8107 23.2519 20.8642C23.3809 20.9177 23.4981 20.9961 23.5968 21.0948L27.6874 25.1855C27.8868 25.3847 27.9988 25.655 27.9989 25.9368C27.999 26.2187 27.8871 26.489 27.6879 26.6884C27.4887 26.8877 27.2184 26.9998 26.9366 26.9999C26.6547 27 26.3844 26.8881 26.185 26.6889L22.0944 22.5983C21.9956 22.4996 21.9172 22.3824 21.8638 22.2534C21.8103 22.1245 21.7828 21.9862 21.7828 21.8466C21.7828 21.7069 21.8103 21.5687 21.8638 21.4397C21.9172 21.3107 21.9956 21.1935 22.0944 21.0948H22.0933Z" fill="white"/>
<path fill-rule="evenodd" clip-rule="evenodd" d="M17.9062 22.75C18.6737 22.75 19.4336 22.5988 20.1426 22.3052C20.8516 22.0115 21.4958 21.581 22.0384 21.0384C22.581 20.4958 23.0115 19.8516 23.3052 19.1426C23.5988 18.4336 23.75 17.6737 23.75 16.9062C23.75 16.1388 23.5988 15.3789 23.3052 14.6699C23.0115 13.9609 22.581 13.3167 22.0384 12.7741C21.4958 12.2315 20.8516 11.801 20.1426 11.5073C19.4336 11.2137 18.6737 11.0625 17.9062 11.0625C16.3564 11.0625 14.87 11.6782 13.7741 12.7741C12.6782 13.87 12.0625 15.3564 12.0625 16.9062C12.0625 18.4561 12.6782 19.9425 13.7741 21.0384C14.87 22.1343 16.3564 22.75 17.9062 22.75ZM24.8125 16.9062C24.8125 18.7379 24.0849 20.4945 22.7897 21.7897C21.4945 23.0849 19.7379 23.8125 17.9062 23.8125C16.0746 23.8125 14.318 23.0849 13.0228 21.7897C11.7276 20.4945 11 18.7379 11 16.9062C11 15.0746 11.7276 13.318 13.0228 12.0228C14.318 10.7276 16.0746 10 17.9062 10C19.7379 10 21.4945 10.7276 22.7897 12.0228C24.0849 13.318 24.8125 15.0746 24.8125 16.9062Z" fill="white"/>
</g>
<defs>
<filter id="filter0_d" x="0" y="0" width="42" height="43" filterUnits="userSpaceOnUse" color-interpolation-filters="sRGB">
<feFlood flood-opacity="0" result="BackgroundImageFix"/>
<feColorMatrix in="SourceAlpha" type="matrix" values="0 0 0 0 0 0 0 0 0 0 0 0 0 0 0 0 0 0 127 0"/>
<feOffset dy="1"/>
<feGaussianBlur stdDeviation="2"/>
<feColorMatrix type="matrix" values="0 0 0 0 0 0 0 0 0 0 0 0 0 0 0 0 0 0 0.25 0"/>
<feBlend mode="normal" in2="BackgroundImageFix" result="effect1_dropShadow"/>
<feBlend mode="normal" in="SourceGraphic" in2="effect1_dropShadow" result="shape"/>
</filter>
</defs>
</svg>
